HIERARCHY
ROOT root
{
	OFFSET 0.000000 0.000000 0.000000
	CHANNELS 6 Xposition Yposition Zposition Zrotation Yrotation Xrotation
	JOINT lhip
	{
		OFFSET 0.058581 -0.082280 -0.017664
		CHANNELS 3 Zrotation Yrotation Xrotation
		JOINT lknee
		{
			OFFSET 0.043451 -0.386469 0.008037
			CHANNELS 3 Zrotation Yrotation Xrotation
			JOINT lankle
			{
				OFFSET -0.014790 -0.426874 -0.037428
				CHANNELS 3 Zrotation Yrotation Xrotation
				JOINT ltoe
				{
					OFFSET 0.041054 -0.060286 0.122042
					CHANNELS 3 Zrotation Yrotation Xrotation
					End Site
					{
						OFFSET 0.000000 0.000000 0.000000
					}
				}
			}
		}
	}
	JOINT rhip
	{
		OFFSET -0.060310 -0.090513 -0.013543
		CHANNELS 3 Zrotation Yrotation Xrotation
		JOINT rknee
		{
			OFFSET -0.043257 -0.383688 -0.004843
			CHANNELS 3 Zrotation Yrotation Xrotation
			JOINT rankle
			{
				OFFSET 0.019056 -0.420046 -0.034562
				CHANNELS 3 Zrotation Yrotation Xrotation
				JOINT rtoe
				{
					OFFSET -0.034840 -0.062106 0.130323
					CHANNELS 3 Zrotation Yrotation Xrotation
					End Site
					{
						OFFSET 0.000000 0.000000 0.000000
					}
				}
			}
		}
	}
	JOINT lowerback
	{
		OFFSET 0.004439 0.124404 -0.038385
		CHANNELS 3 Zrotation Yrotation Xrotation
		JOINT upperback
		{
			OFFSET 0.004488 0.137956 0.026820
			CHANNELS 3 Zrotation Yrotation Xrotation
			JOINT chest
			{
				OFFSET -0.002265 0.056032 0.002855
				CHANNELS 3 Zrotation Yrotation Xrotation
				JOINT lowerneck
				{
					OFFSET -0.013390 0.211636 -0.033468
					CHANNELS 3 Zrotation Yrotation Xrotation
					JOINT upperneck
					{
						OFFSET 0.010113 0.088937 0.050410
						CHANNELS 3 Zrotation Yrotation Xrotation
						End Site
						{
							OFFSET 0.000000 0.000000 0.000000
						}
					}
				}
				JOINT lclavicle
				{
					OFFSET 0.071702 0.114000 -0.018898
					CHANNELS 3 Zrotation Yrotation Xrotation
					JOINT lshoulder
					{
						OFFSET 0.122921 0.045205 -0.019046
						CHANNELS 3 Zrotation Yrotation Xrotation
						JOINT lelbow
						{
							OFFSET 0.255332 -0.015649 -0.022946
							CHANNELS 3 Zrotation Yrotation Xrotation
							JOINT lwrist
							{
								OFFSET 0.265709 0.012698 -0.007375
								CHANNELS 3 Zrotation Yrotation Xrotation
								End Site
								{
									OFFSET 0.000000 0.000000 0.000000
								}
							}
						}
					}
				}
				JOINT rclavicle
				{
					OFFSET -0.082954 0.112472 -0.023707
					CHANNELS 3 Zrotation Yrotation Xrotation
					JOINT rshoulder
					{
						OFFSET -0.113228 0.046853 -0.008472
						CHANNELS 3 Zrotation Yrotation Xrotation
						JOINT relbow
						{
							OFFSET -0.260127 -0.014369 -0.031269
							CHANNELS 3 Zrotation Yrotation Xrotation
							JOINT rwrist
							{
								OFFSET -0.269108 0.006794 -0.006027
								CHANNELS 3 Zrotation Yrotation Xrotation
								End Site
								{
									OFFSET 0.000000 0.000000 0.000000
								}
							}
						}
					}
				}
			}
		}
	}
}
MOTION
Frames: 14
Frame Time: 0.033333
-0.080127 0.246344 0.986055 89.311460 -0.422043 83.014192 -2.179973 -0.188136 3.611586 -4.757921 -5.823891 10.528279 7.075593 14.553363 -19.735606 0.000000 -0.000000 0.000000 -1.195923 1.085142 -11.445325 1.624024 -5.993095 60.238255 2.797157 -7.571000 -12.358109 0.000000 -0.000000 0.000000 -2.217373 -0.388173 11.307323 1.432721 0.589802 0.477445 -0.829184 -1.060700 1.088174 3.149492 4.738093 -8.277360 -2.500502 0.635424 4.114275 -31.509928 7.178765 1.197126 -59.366251 1.339511 8.029633 18.632255 -31.593819 4.977524 -6.163291 -4.978895 -6.888691 31.783966 -3.932101 0.759125 57.241711 0.317358 13.127016 -21.967005 33.047620 -4.305757 10.879748 5.625694 -2.696783 
-0.033151 0.246382 0.990310 91.148324 0.748590 82.981617 -0.381187 0.983486 9.259348 -4.873739 -8.534551 6.271196 5.711662 13.149940 -20.577119 0.000000 -0.000000 0.000000 -0.793265 1.702985 -15.613483 1.422479 -9.657754 52.409538 4.115561 -8.242571 -15.296078 0.000000 -0.000000 0.000000 -1.454767 -2.781881 11.394870 1.920818 0.136803 0.318858 -0.118723 -1.466183 0.964935 2.211980 5.496427 -7.091876 -2.302701 0.730493 3.687499 -30.359891 5.791274 1.008115 -59.602803 -3.246567 9.257611 18.123127 -33.972437 4.480507 -5.777822 -6.498207 -7.073686 31.369174 -4.886319 1.595938 57.412316 -3.127536 11.933413 -20.895899 27.822066 -1.270725 13.033260 4.729051 0.244672 
0.012948 0.245813 0.988226 93.334262 1.446649 83.146588 1.675823 1.955705 14.308401 -5.395823 -10.904777 2.493666 4.392217 11.908904 -21.028213 0.000000 -0.000000 0.000000 -1.230361 1.978340 -18.554853 0.816444 -14.161411 41.653634 4.712755 -9.456164 -16.482555 0.000000 -0.000000 0.000000 -1.270901 -4.689048 11.010660 2.476046 -0.800558 1.050935 0.570419 -1.672251 0.631031 1.450943 6.217171 -6.548332 -1.785260 0.465239 3.284655 -28.815475 4.309196 0.851467 -59.375218 -8.174754 10.480701 17.907022 -37.168027 4.256430 -5.745894 -7.961315 -7.252231 31.146997 -6.030824 2.422584 57.789105 -6.179683 10.730012 -21.902330 23.455754 0.322154 14.623652 3.742024 2.810566 
0.060489 0.245541 0.981662 95.379522 1.651488 83.085461 3.849305 2.921088 19.065966 -6.127069 -12.979117 0.111504 2.993158 9.825719 -21.797180 0.000000 -0.000000 0.000000 -1.903832 1.253674 -19.733042 1.664485 -15.503921 28.594050 6.046325 -10.141029 -15.805990 0.000000 -0.000000 0.000000 -1.441873 -5.351427 11.472034 2.964644 -1.261874 0.895305 1.434050 -2.807121 0.421522 0.811728 6.379278 -6.329306 -1.463991 0.502261 2.688725 -27.485017 3.270331 0.857551 -58.828697 -13.256580 11.052176 17.632527 -40.728501 4.561344 -5.021245 -8.988341 -7.765654 30.856119 -8.145231 2.876281 58.044004 -9.642780 9.401114 -23.642652 21.311509 0.049730 15.061217 1.963450 4.591991 
0.107404 0.245281 0.969894 96.909458 1.165459 83.504635 5.613075 3.957670 22.364631 -7.156193 -15.005110 -0.420618 2.163769 8.047954 -23.308195 0.000000 -0.000000 0.000000 -2.442245 -0.335630 -21.115739 2.826246 -12.751538 16.615820 6.689240 -9.068807 -14.868510 0.000000 -0.000000 0.000000 -2.020142 -5.277958 10.525570 3.325941 -2.007362 1.706620 1.826925 -3.717366 0.608942 0.379256 6.866808 -6.402119 -0.922404 0.241404 2.094091 -26.238990 2.430042 0.580077 -57.658502 -17.935377 11.583526 17.438887 -44.278291 3.655076 -1.621445 -10.221450 -9.423725 30.993168 -10.327228 3.016287 58.035821 -12.701648 8.368558 -25.181481 20.864988 -1.748778 12.565113 1.248001 4.899050 
0.153377 0.245324 0.957140 98.813169 0.383103 84.396735 6.560100 4.800317 23.330617 -7.838246 -17.112599 1.931520 1.743451 6.972963 -25.387827 0.000000 -0.000000 0.000000 -3.310366 -2.769443 -23.180820 3.745397 -8.762778 8.405982 7.380742 -7.284877 -14.370758 0.000000 -0.000000 0.000000 -2.437094 -5.197030 9.578919 3.428225 -3.094506 1.930351 1.967068 -4.854026 0.712000 0.133255 7.249547 -6.858434 -0.691801 0.411285 2.171328 -25.768003 2.030028 0.076523 -55.758543 -22.185415 11.168976 18.110569 -47.303190 2.226719 -0.563326 -10.582433 -9.832270 31.114735 -12.518694 2.436396 57.546973 -15.318131 7.323739 -25.518954 19.987669 -3.325033 13.470414 0.724903 3.418118 
0.201002 0.245899 0.946025 100.489674 0.038134 85.401658 7.637586 5.175464 23.876648 -8.365908 -17.569591 4.910042 0.563518 6.324634 -25.681658 0.000000 -0.000000 0.000000 -4.422283 -3.815205 -24.644358 4.734841 -7.350352 4.320039 9.159443 -4.915232 -12.447154 0.000000 -0.000000 0.000000 -2.015443 -5.746019 8.671874 3.505190 -3.648206 1.936073 1.979860 -5.796067 0.723406 -0.354037 7.683597 -7.183538 -0.896149 1.068416 1.769451 -25.722288 2.095090 -0.447220 -54.665253 -24.758716 11.069218 20.252794 -50.568533 -0.576294 0.697750 -10.463606 -9.867417 31.074012 -14.446374 2.005571 56.611908 -17.109497 6.451782 -25.370891 19.395343 -5.032983 13.189557 0.524914 1.997818 
0.253463 0.246168 0.940256 101.715186 0.528708 85.831963 8.452039 3.703194 24.802845 -8.262015 -20.889513 9.377654 -0.797881 6.226583 -24.520873 0.000000 -0.000000 0.000000 -4.758251 -2.751456 -25.244343 4.887019 -8.889759 7.517019 9.188141 -5.736559 -11.826769 0.000000 -0.000000 0.000000 -0.702122 -7.128883 7.705311 3.827107 -3.595632 2.071662 1.689739 -5.954871 0.776233 -0.850173 7.388243 -7.003664 -1.395904 1.657266 1.540791 -26.217754 2.634293 -0.563149 -54.436117 -25.803390 11.129738 22.964786 -53.428877 -3.103354 1.343199 -10.202280 -10.170358 30.949336 -15.106806 2.120518 55.987030 -18.668050 5.801350 -25.299325 18.603858 -6.445333 12.456306 -0.016898 -0.000654 
0.307811 0.245625 0.940441 100.993216 1.141259 86.355567 7.632452 1.818483 24.978863 -8.099675 -21.758810 15.259042 -1.369265 7.559640 -21.053682 0.000000 -0.000000 0.000000 -4.392332 -0.890525 -26.314384 4.951500 -9.787763 13.951995 10.034262 -7.057590 -3.443772 0.000000 -0.000000 0.000000 0.815745 -8.112496 6.335637 4.269671 -2.799020 2.667228 1.432239 -5.585620 0.645529 -1.713222 6.660964 -7.503383 -2.167931 3.336585 1.938662 -27.369553 3.366413 -0.283802 -54.531773 -24.833758 11.301926 26.734564 -55.904649 -7.101481 2.667977 -10.576093 -10.409251 31.323354 -15.114923 2.303387 54.582132 -19.169299 5.892881 -25.079008 17.705525 -7.490587 11.972234 0.141065 -0.624961 
0.363134 0.243466 0.945058 98.122095 2.656096 86.856637 6.649137 0.768138 23.036989 -8.185052 -16.995000 23.709523 -2.759557 8.858963 -11.143794 0.000000 -0.000000 0.000000 -2.049319 2.096910 -28.549861 3.912755 -9.432930 22.845963 7.938080 -6.168322 -4.399789 0.000000 -0.000000 0.000000 3.152143 -8.582754 5.342816 5.071214 -1.246322 3.403255 1.102969 -4.774785 0.214094 -2.471678 7.184953 -8.127958 -3.190080 4.448911 1.797420 -28.782195 4.549352 -0.212611 -55.374361 -21.932117 12.117355 30.715124 -57.724768 -12.182620 3.438211 -9.531471 -11.012012 31.662592 -14.225481 3.233145 53.180513 -18.455529 6.395948 -25.010059 17.722089 -7.320574 11.373964 -0.258583 -1.220659 
0.417738 0.239785 0.950258 95.572707 4.044511 85.579854 5.941707 -0.897507 20.271493 -7.760414 -9.859258 34.780470 -4.540978 9.207969 1.663658 0.000000 -0.000000 0.000000 0.760948 5.045121 -26.398222 3.582445 -9.619278 27.847233 2.422711 -5.406484 -8.138798 0.000000 -0.000000 0.000000 4.791020 -8.374345 5.279109 5.624408 -1.407880 5.871262 0.623129 -3.175331 0.055847 -3.038831 7.728220 -8.907521 -3.034575 5.011488 0.931761 -28.689908 3.850731 0.133142 -56.424482 -18.614747 12.193166 33.289833 -57.855559 -15.455260 5.814138 -9.394785 -12.588509 31.442738 -11.776977 4.409600 54.242761 -16.358009 6.034174 -25.464614 18.384460 -6.396080 9.729249 -0.071388 -2.168356 
0.469761 0.237985 0.955431 94.719001 3.752669 85.249011 4.357147 -2.071739 14.707140 -6.796370 -5.196738 46.260805 -4.859797 11.509382 10.932791 0.000000 -0.000000 0.000000 2.051763 4.598131 -22.890835 4.519567 -7.385101 28.894213 -1.780153 -7.518445 -12.153968 0.000000 -0.000000 0.000000 4.471645 -6.382643 6.756374 5.744857 -0.752817 4.682842 0.969501 -3.574571 -0.991717 -2.686744 6.078017 -8.764336 -2.617981 5.682238 2.433148 -28.186542 4.210268 0.897599 -58.785197 -14.894659 11.519945 30.062433 -57.735788 -12.910034 4.003512 -9.092294 -11.622540 30.965546 -10.341915 4.856140 55.478736 -15.702304 4.673534 -25.336660 20.398913 -7.274434 10.903945 -1.032036 0.865503 
0.518772 0.238015 0.962092 94.137927 3.106647 85.024959 3.394801 -2.225386 9.013386 -6.741488 -2.797858 54.419102 -1.230012 13.710950 4.827955 0.000000 -0.000000 0.000000 2.260179 4.396668 -18.690292 4.605476 -6.783024 28.634825 -2.553366 -7.399645 -15.473905 0.000000 -0.000000 0.000000 3.629555 -4.593912 6.735614 5.896195 -0.722287 4.690931 0.878326 -3.047213 -0.681732 -1.646352 5.628657 -8.526348 -3.121923 4.761269 2.784992 -29.210978 4.800159 0.951205 -59.016753 -13.073319 11.046329 23.133932 -55.273140 -5.167286 0.611954 -7.743604 -10.590941 31.861958 -9.048682 4.687478 55.534047 -12.296488 5.846676 -25.491974 20.705517 -6.540548 12.452365 -1.336267 -0.501959 
0.566597 0.237758 0.970071 93.276943 2.551196 84.739543 2.929223 -1.497090 2.881518 -4.511373 -0.374313 58.618660 2.040270 12.441856 -0.914471 0.000000 -0.000000 0.000000 3.099534 3.133813 -13.552157 4.338714 -4.088261 26.468938 -2.815519 -7.184362 -17.812536 0.000000 -0.000000 0.000000 2.900777 -2.798442 7.856838 5.638587 -0.666173 2.922512 0.945563 -2.367231 -0.353064 -0.776569 4.818220 -7.726116 -3.171429 4.318628 4.052370 -29.202201 5.592277 1.676495 -60.225751 -10.382900 9.731651 17.047170 -50.805810 3.730857 -0.956963 -10.119893 -10.328405 31.386387 -7.384190 4.651701 56.754364 -8.401521 6.335935 -25.638054 21.349881 -5.148535 10.449462 -0.249297 0.188843 
